# xmcd
#
# Track frame offsets:
#	150
#	8220
#	37505
#	62597
#	86721
#	111541
#	146437
#	171316
#	197205
#	236054
#	242914
#	268386
#
# Disc length: 3947 seconds
#
# Revision: 12
# Processed by: cddbd v1.5.2PL0 Copyright (c) Steve Scherf et al.
# Submitted via: Jack! The Knife 20 Magnifico
#
DISCID=ab0f690c
DTITLE=Van Halen - Van Halen III
DYEAR=1998
DGENRE=Hard Rock
TTITLE0=Neworld
TTITLE1=Without You
TTITLE2=One I Want
TTITLE3=From Afar
TTITLE4=Dirty Water Dog
TTITLE5=Once
TTITLE6=Fire In The Hole
TTITLE7=Josephina
TTITLE8=Year To The Day
TTITLE9=Primary
TTITLE10=Ballot Or The Bullet
TTITLE11=How Many Say I
EXTD=Mike Post, Eddie Van Halen
EXTT0=E. Van Halen, Anthony, Cherone, A. Van Halen
EXTT1=E. Van Halen, Anthony, Cherone, A. Van Halen
EXTT2=E. Van Halen, Anthony, Cherone, A. Van Halen
EXTT3=E. Van Halen, Anthony, Cherone, A. Van Halen
EXTT4=E. Van Halen, Anthony, Cherone, A. Van Halen
EXTT5=E. Van Halen, Anthony, Cherone, A. Van Halen
EXTT6=E. Van Halen, Anthony, Cherone, A. Van Halen
EXTT7=E. Van Halen, Anthony, Cherone, A. Van Halen
EXTT8=E. Van Halen, Anthony, Cherone, A. Van Halen
EXTT9=E. Van Halen, Anthony, Cherone, A. Van Halen
EXTT10=E. Van Halen, Anthony, Cherone, A. Van Halen
EXTT11=E. Van Halen, Anthony, Cherone, A. Van Halen
PLAYORDER=
